<?xml version="1.0" encoding="UTF-8" standalone="no"?>
<!-- Created with Inkscape (http://www.inkscape.org/) -->

<svg
   width="19.328485"
   height="63.438995"
   id="svg2"
   version="1.1"
   inkscape:version="1.4.3 (0d15f75, 2025-12-25)"
   style="display:inline"
   sodipodi:docname="Flat.svg"
   xmlns:inkscape="http://www.inkscape.org/namespaces/inkscape"
   xmlns:sodipodi="http://sodipodi.sourceforge.net/DTD/sodipodi-0.dtd"
   xmlns="http://www.w3.org/2000/svg"
   xmlns:svg="http://www.w3.org/2000/svg"
   xmlns:rdf="http://www.w3.org/1999/02/22-rdf-syntax-ns#"
   xmlns:cc="http://creativecommons.org/ns#"
   xmlns:dc="http://purl.org/dc/elements/1.1/">
  <defs
     id="defs4" />
  <sodipodi:namedview
     id="base"
     pagecolor="#ffffff"
     bordercolor="#666666"
     borderopacity="1.0"
     inkscape:pageopacity="0.0"
     inkscape:pageshadow="2"
     inkscape:zoom="3.905"
     inkscape:cx="-13.700384"
     inkscape:cy="10.627401"
     inkscape:document-units="px"
     inkscape:current-layer="layer3"
     showgrid="false"
     fit-margin-top="0"
     fit-margin-left="0"
     fit-margin-right="0"
     fit-margin-bottom="0"
     inkscape:window-width="3840"
     inkscape:window-height="2054"
     inkscape:window-x="-11"
     inkscape:window-y="-11"
     inkscape:window-maximized="1"
     inkscape:showpageshadow="2"
     inkscape:pagecheckerboard="0"
     inkscape:deskcolor="#d1d1d1" />
  <metadata
     id="metadata7">
    <rdf:RDF>
      <cc:Work
         rdf:about="">
        <dc:format>image/svg+xml</dc:format>
        <dc:type
           rdf:resource="http://purl.org/dc/dcmitype/StillImage" />
      </cc:Work>
    </rdf:RDF>
  </metadata>
  <g
     inkscape:groupmode="layer"
     id="layer3"
     inkscape:label="note"
     style="display:inline"
     transform="translate(-73.690426,-89.459865)">
    <path
       inkscape:connector-curvature="0"
       style="font-style:normal;font-weight:normal;font-size:317.82px;line-height:125%;font-family:'Bitstream Vera Sans';fill:#ffffff;fill-opacity:1;stroke:none"
       d="m 76.082718,89.459865 v 30.818095 c -2e-6,1e-5 -2e-6,2.07737 0,6.23206 2.760333,-2.6616 5.858041,-4.02486 9.293135,-4.0898 2.146916,3e-5 3.987139,0.94133 5.520675,2.8239 1.349483,1.75278 2.054897,3.7003 2.116256,5.84256 0.0613,1.68785 -0.337388,3.63536 -1.196145,5.84255 -0.306719,0.90884 -0.981468,1.8826 -2.024245,2.92127 -0.797446,0.77901 -1.625547,1.59047 -2.484304,2.4344 -4.539231,3.50552 -9.078447,7.0435 -13.617664,10.61396 V 89.459865 h 2.392292 m 7.452911,39.192415 c -0.736099,-0.90883 -1.686881,-1.36325 -2.852349,-1.36325 -1.472185,0 -2.66833,0.87638 -3.588438,2.62914 -0.674752,1.36326 -1.012126,4.57666 -1.012124,9.64021 v 8.37432 c 0.06134,0.25965 1.77888,-1.33081 5.152629,-4.77142 1.840216,-1.81768 3.036361,-3.95996 3.588439,-6.4268 0.245352,-0.97377 0.368034,-1.94751 0.368045,-2.92128 -1.1e-5,-2.14227 -0.552078,-3.86257 -1.656202,-5.16092"
       id="text1412"
       sodipodi:nodetypes="cccccccccccccscsccccc" />
  </g>
</svg>
