<?xml version="1.0" encoding="UTF-8" standalone="no"?>
<svg
   width="100"
   height="140"
   viewBox="0 0 10 14"
   fill="none"
   version="1.1"
   id="svg3"
   sodipodi:docname="Pause.svg"
   inkscape:version="1.4.3 (0d15f75, 2025-12-25)"
   xmlns:inkscape="http://www.inkscape.org/namespaces/inkscape"
   xmlns:sodipodi="http://sodipodi.sourceforge.net/DTD/sodipodi-0.dtd"
   xmlns="http://www.w3.org/2000/svg"
   xmlns:svg="http://www.w3.org/2000/svg">
  <defs
     id="defs3" />
  <sodipodi:namedview
     id="namedview3"
     pagecolor="#ffffff"
     bordercolor="#000000"
     borderopacity="0.25"
     inkscape:showpageshadow="2"
     inkscape:pageopacity="0.0"
     inkscape:pagecheckerboard="0"
     inkscape:deskcolor="#d1d1d1"
     inkscape:zoom="1.4179688"
     inkscape:cx="293.02478"
     inkscape:cy="32.793387"
     inkscape:window-width="2428"
     inkscape:window-height="1368"
     inkscape:window-x="727"
     inkscape:window-y="375"
     inkscape:window-maximized="0"
     inkscape:current-layer="svg3" />
  <path
     d="M 0,1 C 0,0.44772 0.4477,0 1,0 h 2 c 0.5523,0 1,0.44772 1,1 v 12 c 0,0.5523 -0.4477,1 -1,1 H 1 C 0.4477,14 0,13.5523 0,13 Z"
     fill="#212121"
     id="path1"
     style="fill:#ffffff" />
  <path
     d="M 7,0 C 6.4477,0 6,0.44772 6,1 v 12 c 0,0.5523 0.4477,1 1,1 h 2 c 0.5523,0 1,-0.4477 1,-1 V 1 C 10,0.44772 9.5523,0 9,0 Z"
     fill="#212121"
     id="path2"
     style="fill:#ffffff" />
</svg>
