<?xml version="1.0" encoding="UTF-8" standalone="no"?>
<svg
   version="1.0"
   width="240"
   height="25"
   id="svg4"
   sodipodi:docname="Staff.svg"
   inkscape:version="1.4.3 (0d15f75, 2025-12-25)"
   xmlns:inkscape="http://www.inkscape.org/namespaces/inkscape"
   xmlns:sodipodi="http://sodipodi.sourceforge.net/DTD/sodipodi-0.dtd"
   xmlns="http://www.w3.org/2000/svg"
   xmlns:svg="http://www.w3.org/2000/svg">
  <defs
     id="defs4" />
  <sodipodi:namedview
     id="namedview4"
     pagecolor="#ffffff"
     bordercolor="#000000"
     borderopacity="0.25"
     inkscape:showpageshadow="2"
     inkscape:pageopacity="0.0"
     inkscape:pagecheckerboard="0"
     inkscape:deskcolor="#d1d1d1"
     inkscape:zoom="5.6568543"
     inkscape:cx="164.5791"
     inkscape:cy="23.688077"
     inkscape:window-width="3252"
     inkscape:window-height="1557"
     inkscape:window-x="566"
     inkscape:window-y="404"
     inkscape:window-maximized="0"
     inkscape:current-layer="svg4" />
  <path
     style="baseline-shift:baseline;display:inline;overflow:visible;vector-effect:none;enable-background:accumulate;stop-color:#000000"
     d="M 1.5,0.5 H 240"
     id="path4" />
  <path
     id="path5"
     style="baseline-shift:baseline;display:inline;overflow:visible;vector-effect:none;enable-background:accumulate;stop-color:#000000;fill:#ffffff;fill-opacity:1"
     d="M 0 0 L 0 25 L 1.5 25 L 1.5 24.996094 L 240 24.996094 L 240 24 L 1.5 24 L 1.5 18.998047 L 240 18.998047 L 240 18.001953 L 1.5 18.001953 L 1.5 12.998047 L 240 12.998047 L 240 12.001953 L 1.5 12.001953 L 1.5 7 L 240 7 L 240 6.0039062 L 1.5 6.0039062 L 1.5 0.99804688 L 240 0.99804688 L 240 0.001953125 L 1.5 0.001953125 L 1.5 0 L 0 0 z " />
  <path
     style="baseline-shift:baseline;display:inline;overflow:visible;vector-effect:none;enable-background:accumulate;stop-color:#000000"
     d="M 1.5,12.5 H 240"
     id="path8" />
  <path
     style="baseline-shift:baseline;display:inline;overflow:visible;vector-effect:none;enable-background:accumulate;stop-color:#000000"
     d="M 1.5,18.5 H 240"
     id="path10" />
</svg>
